<svg xmlns="http://www.w3.org/2000/svg" viewBox="0 0 1600 1000" width="1600" height="1000">
<defs>
<filter id="b" x="-50%" y="-50%" width="200%" height="200%"><feGaussianBlur stdDeviation="120"/></filter>
<filter id="n"><feTurbulence type="fractalNoise" baseFrequency="0.85" numOctaves="2" stitchTiles="stitch"/><feColorMatrix values="0 0 0 0 0.5  0 0 0 0 0.5  0 0 0 0 0.5  0 0 0 1 0"/></filter>
<radialGradient id="v" cx="50%" cy="50%" r="75%"><stop offset="60%" stop-color="#000" stop-opacity="0"/><stop offset="100%" stop-color="#000" stop-opacity="0.35"/></radialGradient>
</defs>
<rect width="1600" height="1000" fill="#16241a"/>
<g filter="url(#b)"><ellipse cx="400" cy="400" rx="320" ry="260" fill="#ec4899" opacity="0.45"/><ellipse cx="1200" cy="650" rx="360" ry="280" fill="#f59e0b" opacity="0.35"/></g>
<g opacity="0.7"><ellipse cx="800" cy="400" rx="50" ry="100" fill="#fbcfe8" opacity="0.55" transform="rotate(0 800 500)"/><ellipse cx="800" cy="400" rx="50" ry="100" fill="#fbcfe8" opacity="0.55" transform="rotate(25.714285714285715 800 500)"/><ellipse cx="800" cy="400" rx="50" ry="100" fill="#fbcfe8" opacity="0.55" transform="rotate(51.42857142857143 800 500)"/><ellipse cx="800" cy="400" rx="50" ry="100" fill="#fbcfe8" opacity="0.55" transform="rotate(77.14285714285714 800 500)"/><ellipse cx="800" cy="400" rx="50" ry="100" fill="#fbcfe8" opacity="0.55" transform="rotate(102.85714285714286 800 500)"/><ellipse cx="800" cy="400" rx="50" ry="100" fill="#fbcfe8" opacity="0.55" transform="rotate(128.57142857142858 800 500)"/><ellipse cx="800" cy="400" rx="50" ry="100" fill="#fbcfe8" opacity="0.55" transform="rotate(154.28571428571428 800 500)"/><ellipse cx="800" cy="400" rx="50" ry="100" fill="#fbcfe8" opacity="0.55" transform="rotate(180 800 500)"/><ellipse cx="800" cy="400" rx="50" ry="100" fill="#fbcfe8" opacity="0.55" transform="rotate(205.71428571428572 800 500)"/><ellipse cx="800" cy="400" rx="50" ry="100" fill="#fbcfe8" opacity="0.55" transform="rotate(231.42857142857144 800 500)"/><ellipse cx="800" cy="400" rx="50" ry="100" fill="#fbcfe8" opacity="0.55" transform="rotate(257.14285714285717 800 500)"/><ellipse cx="800" cy="400" rx="50" ry="100" fill="#fbcfe8" opacity="0.55" transform="rotate(282.8571428571429 800 500)"/><ellipse cx="800" cy="400" rx="50" ry="100" fill="#fbcfe8" opacity="0.55" transform="rotate(308.57142857142856 800 500)"/><ellipse cx="800" cy="400" rx="50" ry="100" fill="#fbcfe8" opacity="0.55" transform="rotate(334.2857142857143 800 500)"/></g>
<rect width="1600" height="1000" fill="url(#v)"/>
<rect width="1600" height="1000" filter="url(#n)" opacity="0.09" style="mix-blend-mode:overlay"/>
</svg>