<svg xmlns="http://www.w3.org/2000/svg" viewBox="0 0 1600 1000" width="1600" height="1000">
<defs>
<filter id="b" x="-50%" y="-50%" width="200%" height="200%"><feGaussianBlur stdDeviation="120"/></filter>
<filter id="n"><feTurbulence type="fractalNoise" baseFrequency="0.85" numOctaves="2" stitchTiles="stitch"/><feColorMatrix values="0 0 0 0 0.5  0 0 0 0 0.5  0 0 0 0 0.5  0 0 0 1 0"/></filter>
<radialGradient id="v" cx="50%" cy="50%" r="75%"><stop offset="60%" stop-color="#000" stop-opacity="0"/><stop offset="100%" stop-color="#000" stop-opacity="0.35"/></radialGradient>
</defs>
<rect width="1600" height="1000" fill="#2a0f24"/>
<g filter="url(#b)"><ellipse cx="550" cy="450" rx="360" ry="300" fill="#ff5c8a" opacity="0.8"/><ellipse cx="1050" cy="550" rx="360" ry="300" fill="#ff9a62" opacity="0.7"/></g>
<rect x="285" y="805" width="8" height="30" rx="7.6" fill="#ffd6e2"/><rect x="324.9" y="723.457095292915" width="8" height="193.08580941416992" rx="7.6" fill="#ffd6e2"/><rect x="364.79999999999995" y="690.2080900735382" width="8" height="259.58381985292374" rx="7.6" fill="#ffd6e2"/><rect x="404.7" y="718.4529180623043" width="8" height="203.09416387539127" rx="7.6" fill="#ffd6e2"/><rect x="444.59999999999997" y="778.61746543185" width="8" height="82.7650691363001" rx="7.6" fill="#ffd6e2"/><rect x="484.5" y="786.3722294120778" width="8" height="67.25554117584453" rx="7.6" fill="#ffd6e2"/><rect x="524.4" y="783.5127739774566" width="8" height="72.97445204508684" rx="7.6" fill="#ffd6e2"/><rect x="564.3" y="799.994234828631" width="8" height="40.011530342738034" rx="7.6" fill="#ffd6e2"/><rect x="604.1999999999999" y="783.1737641983475" width="8" height="73.65247160330509" rx="7.6" fill="#ffd6e2"/><rect x="644.1" y="803.9535961385488" width="8" height="32.09280772290236" rx="7.6" fill="#ffd6e2"/><rect x="684" y="748.0945257862925" width="8" height="143.81094842741504" rx="7.6" fill="#ffd6e2"/><rect x="723.9" y="699.8238220123499" width="8" height="240.3523559753002" rx="7.6" fill="#ffd6e2"/><rect x="763.8" y="701.8931097797143" width="8" height="236.21378044057124" rx="7.6" fill="#ffd6e2"/><rect x="803.6999999999999" y="763.9929449296881" width="8" height="112.01411014062376" rx="7.6" fill="#ffd6e2"/><rect x="843.5999999999999" y="757.5040837156653" width="8" height="124.99183256866938" rx="7.6" fill="#ffd6e2"/><rect x="883.5" y="696.0352813576898" width="8" height="247.92943728462052" rx="7.6" fill="#ffd6e2"/><rect x="923.4" y="695.7155047049639" width="8" height="248.56899059007222" rx="7.6" fill="#ffd6e2"/><rect x="963.3" y="747.2212406396178" width="8" height="145.55751872076445" rx="7.6" fill="#ffd6e2"/><rect x="1003.1999999999999" y="802.6324858193018" width="8" height="34.735028361396516" rx="7.6" fill="#ffd6e2"/><rect x="1043.1" y="775.7759669314084" width="8" height="88.4480661371831" rx="7.6" fill="#ffd6e2"/><rect x="1083" y="790.5571146415879" width="8" height="58.88577071682421" rx="7.6" fill="#ffd6e2"/><rect x="1122.8999999999999" y="792.0988012585999" width="8" height="55.802397482800146" rx="7.6" fill="#ffd6e2"/><rect x="1162.8" y="791.5764492047688" width="8" height="56.84710159046244" rx="7.6" fill="#ffd6e2"/><rect x="1202.7" y="777.8793746734879" width="8" height="84.24125065302428" rx="7.6" fill="#ffd6e2"/><rect x="1242.6" y="721.619353702357" width="8" height="196.76129259528597" rx="7.6" fill="#ffd6e2"/><rect x="1282.5" y="695.7737766736809" width="8" height="248.4524466526381" rx="7.6" fill="#ffd6e2"/><rect x="1322.3999999999999" y="729.9579430560617" width="8" height="180.08411388787667" rx="7.6" fill="#ffd6e2"/><rect x="1362.3" y="798.4625971980892" width="8" height="43.0748056038217" rx="7.6" fill="#ffd6e2"/><rect x="1402.2" y="717.4325515785793" width="8" height="205.13489684284144" rx="7.6" fill="#ffd6e2"/>
<rect width="1600" height="1000" fill="url(#v)"/>
<rect width="1600" height="1000" filter="url(#n)" opacity="0.09" style="mix-blend-mode:overlay"/>
</svg>