<svg xmlns="http://www.w3.org/2000/svg" viewBox="0 0 900 1200" width="900" height="1200">
<defs>
<filter id="b" x="-50%" y="-50%" width="200%" height="200%"><feGaussianBlur stdDeviation="90"/></filter>
<filter id="n"><feTurbulence type="fractalNoise" baseFrequency="0.85" numOctaves="2" stitchTiles="stitch"/><feColorMatrix values="0 0 0 0 0.5  0 0 0 0 0.5  0 0 0 0 0.5  0 0 0 1 0"/></filter>
<radialGradient id="v" cx="50%" cy="50%" r="75%"><stop offset="60%" stop-color="#000" stop-opacity="0"/><stop offset="100%" stop-color="#000" stop-opacity="0.35"/></radialGradient>
<linearGradient id="sky" x1="0" y1="0" x2="0" y2="1"><stop offset="0" stop-color="#3b0a0a"/><stop offset="0.38" stop-color="#9f1f17"/><stop offset="0.62" stop-color="#ff6a2b"/><stop offset="0.78" stop-color="#ffb46b"/><stop offset="1" stop-color="#ffb46b"/></linearGradient>
<linearGradient id="sun" x1="0" y1="0" x2="0" y2="1"><stop offset="0" stop-color="#ffe08a"/><stop offset="1" stop-color="#ff6a2b"/></linearGradient>
<radialGradient id="glow"><stop offset="0" stop-color="#ffb46b" stop-opacity="0.55"/><stop offset="1" stop-color="#ffb46b" stop-opacity="0"/></radialGradient>
<mask id="slats" maskUnits="userSpaceOnUse" x="0" y="0" width="900" height="1200"><rect width="900" height="1200" fill="#fff"/><rect x="0" y="590" width="900" height="2.5" fill="#000"/><rect x="0" y="615" width="900" height="4.8" fill="#000"/><rect x="0" y="640" width="900" height="7.1" fill="#000"/><rect x="0" y="665" width="900" height="9.4" fill="#000"/><rect x="0" y="690" width="900" height="11.7" fill="#000"/><rect x="0" y="715" width="900" height="14" fill="#000"/><rect x="0" y="740" width="900" height="16.3" fill="#000"/><rect x="0" y="765" width="900" height="18.6" fill="#000"/></mask>
</defs>
<rect width="900" height="1200" fill="url(#sky)"/>
<g filter="url(#b)"><ellipse cx="250" cy="430" rx="260" ry="200" fill="#ff9a3d" opacity="0.55"/><ellipse cx="700" cy="300" rx="240" ry="180" fill="#ff4d6d" opacity="0.4"/></g>
<circle cx="450" cy="690" r="400" fill="url(#glow)"/>
<g mask="url(#slats)"><circle cx="450" cy="690" r="230" fill="url(#sun)"/></g>
<path d="M 0 826.5 L 15 828.5 L 30 829.7 L 45 830.3 L 60 830.3 L 75 829.8 L 90 828.9 L 105 827.7 L 120 826.2 L 135 824.7 L 150 823.2 L 165 821.8 L 180 820.5 L 195 819.4 L 210 818.6 L 225 818.1 L 240 817.7 L 255 817.6 L 270 817.6 L 285 817.7 L 300 817.8 L 315 817.8 L 330 817.5 L 345 817 L 360 816.1 L 375 814.7 L 390 812.9 L 405 810.5 L 420 807.5 L 435 804 L 450 800 L 465 795.6 L 480 790.8 L 495 785.8 L 510 780.7 L 525 775.6 L 540 770.7 L 555 766.1 L 570 762 L 585 758.5 L 600 755.7 L 615 753.8 L 630 752.7 L 645 752.7 L 660 753.6 L 675 755.4 L 690 758.2 L 705 761.9 L 720 766.3 L 735 771.3 L 750 776.8 L 765 782.7 L 780 788.7 L 795 794.8 L 810 800.7 L 825 806.4 L 840 811.6 L 855 816.3 L 870 820.4 L 885 823.8 L 900 826.5 L 915 828.5 L 930 829.7 L 945 830.3 L 960 830.3 L 975 829.8 L 990 828.9 L 1005 827.7 L 1020 826.2 L 1035 824.7 L 1050 823.2 L 1065 821.8 L 1080 820.5 L 1095 819.4 L 1110 818.6 L 1125 818.1 L 1140 817.7 L 1155 817.6 L 1170 817.6 L 1185 817.7 L 1200 817.8 L 1215 817.8 L 1230 817.5 L 1245 817 L 1260 816.1 L 1275 814.7 L 1290 812.9 L 1305 810.5 L 1320 807.5 L 1335 804 L 1350 800 L 1365 795.6 L 1380 790.8 L 1395 785.8 L 1410 780.7 L 1425 775.6 L 1440 770.7 L 1455 766.1 L 1470 762 L 1485 758.5 L 1500 755.7 L 1515 753.8 L 1530 752.7 L 1545 752.7 L 1560 753.6 L 1575 755.4 L 1590 758.2 L 1605 761.9 L 1620 766.3 L 1635 771.3 L 1650 776.8 L 1665 782.7 L 1680 788.7 L 1695 794.8 L 1710 800.7 L 1725 806.4 L 1740 811.6 L 1755 816.3 L 1770 820.4 L 1785 823.8 L 1800 826.5 L 1800 1200 L 0 1200 Z" fill="#c2410c"/>
<path d="M 0 920.9 L 15 921.5 L 30 921.3 L 45 920.2 L 60 918.3 L 75 915.4 L 90 911.6 L 105 906.8 L 120 901.1 L 135 894.7 L 150 887.6 L 165 880 L 180 872.2 L 195 864.2 L 210 856.3 L 225 848.8 L 240 841.8 L 255 835.4 L 270 830 L 285 825.5 L 300 822.2 L 315 820.1 L 330 819.3 L 345 819.7 L 360 821.3 L 375 824 L 390 827.7 L 405 832.4 L 420 837.7 L 435 843.5 L 450 849.7 L 465 856.1 L 480 862.4 L 495 868.6 L 510 874.4 L 525 879.7 L 540 884.4 L 555 888.5 L 570 892 L 585 894.7 L 600 896.9 L 615 898.4 L 630 899.4 L 645 900.1 L 660 900.4 L 675 900.6 L 690 900.7 L 705 900.9 L 720 901.2 L 735 901.8 L 750 902.7 L 765 903.9 L 780 905.4 L 795 907.2 L 810 909.3 L 825 911.5 L 840 913.8 L 855 916 L 870 918 L 885 919.7 L 900 920.9 L 915 921.5 L 930 921.3 L 945 920.2 L 960 918.3 L 975 915.4 L 990 911.6 L 1005 906.8 L 1020 901.1 L 1035 894.7 L 1050 887.6 L 1065 880 L 1080 872.2 L 1095 864.2 L 1110 856.3 L 1125 848.8 L 1140 841.8 L 1155 835.4 L 1170 830 L 1185 825.5 L 1200 822.2 L 1215 820.1 L 1230 819.3 L 1245 819.7 L 1260 821.3 L 1275 824 L 1290 827.7 L 1305 832.4 L 1320 837.7 L 1335 843.5 L 1350 849.7 L 1365 856.1 L 1380 862.4 L 1395 868.6 L 1410 874.4 L 1425 879.7 L 1440 884.4 L 1455 888.5 L 1470 892 L 1485 894.7 L 1500 896.9 L 1515 898.4 L 1530 899.4 L 1545 900.1 L 1560 900.4 L 1575 900.6 L 1590 900.7 L 1605 900.9 L 1620 901.2 L 1635 901.8 L 1650 902.7 L 1665 903.9 L 1680 905.4 L 1695 907.2 L 1710 909.3 L 1725 911.5 L 1740 913.8 L 1755 916 L 1770 918 L 1785 919.7 L 1800 920.9 L 1800 1200 L 0 1200 Z" fill="#8f1d14"/>
<path d="M 0 954.1 L 15 947.2 L 30 940.6 L 45 934.6 L 60 929.4 L 75 925.2 L 90 922.2 L 105 920.3 L 120 919.9 L 135 920.8 L 150 923.2 L 165 926.9 L 180 931.9 L 195 938.1 L 210 945.4 L 225 953.4 L 240 962.1 L 255 971.2 L 270 980.4 L 285 989.5 L 300 998.4 L 315 1006.7 L 330 1014.3 L 345 1021.1 L 360 1026.8 L 375 1031.6 L 390 1035.2 L 405 1037.7 L 420 1039.2 L 435 1039.7 L 450 1039.3 L 465 1038.1 L 480 1036.3 L 495 1034 L 510 1031.5 L 525 1028.8 L 540 1026.1 L 555 1023.6 L 570 1021.2 L 585 1019.2 L 600 1017.5 L 615 1016.1 L 630 1015.1 L 645 1014.3 L 660 1013.7 L 675 1013.2 L 690 1012.6 L 705 1011.9 L 720 1010.9 L 735 1009.5 L 750 1007.6 L 765 1005 L 780 1001.8 L 795 997.8 L 810 993.1 L 825 987.8 L 840 981.8 L 855 975.3 L 870 968.4 L 885 961.3 L 900 954.1 L 915 947.2 L 930 940.6 L 945 934.6 L 960 929.4 L 975 925.2 L 990 922.2 L 1005 920.3 L 1020 919.9 L 1035 920.8 L 1050 923.2 L 1065 926.9 L 1080 931.9 L 1095 938.1 L 1110 945.4 L 1125 953.4 L 1140 962.1 L 1155 971.2 L 1170 980.4 L 1185 989.5 L 1200 998.4 L 1215 1006.7 L 1230 1014.3 L 1245 1021.1 L 1260 1026.8 L 1275 1031.6 L 1290 1035.2 L 1305 1037.7 L 1320 1039.2 L 1335 1039.7 L 1350 1039.3 L 1365 1038.1 L 1380 1036.3 L 1395 1034 L 1410 1031.5 L 1425 1028.8 L 1440 1026.1 L 1455 1023.6 L 1470 1021.2 L 1485 1019.2 L 1500 1017.5 L 1515 1016.1 L 1530 1015.1 L 1545 1014.3 L 1560 1013.7 L 1575 1013.2 L 1590 1012.6 L 1605 1011.9 L 1620 1010.9 L 1635 1009.5 L 1650 1007.6 L 1665 1005 L 1680 1001.8 L 1695 997.8 L 1710 993.1 L 1725 987.8 L 1740 981.8 L 1755 975.3 L 1770 968.4 L 1785 961.3 L 1800 954.1 L 1800 1200 L 0 1200 Z" fill="#3d0b0a"/>
<rect width="900" height="1200" fill="url(#v)"/>
<rect width="900" height="1200" filter="url(#n)" opacity="0.1" style="mix-blend-mode:overlay"/>
</svg>